HIERARCHY
ROOT SpineBase
{
  OFFSET 0.000000 0.000000 0.000000
  CHANNELS 6 Xposition Yposition Zposition Zrotation Xrotation Yrotation
  JOINT SpineMid
  {
    OFFSET -0.000000 33.994705 0.000000
    CHANNELS 3 Zrotation Xrotation Yrotation
    JOINT SpineShoulder
    {
      OFFSET -0.099915 25.469898 -0.953273
      CHANNELS 3 Zrotation Xrotation Yrotation
      JOINT Neck
      {
        OFFSET -0.089238 8.504666 -0.689745
        CHANNELS 3 Zrotation Xrotation Yrotation
        JOINT Head
        {
          OFFSET 0.425181 11.758394 3.208858
          CHANNELS 3 Zrotation Xrotation Yrotation
          End Site
          {
            OFFSET 0 0 0
          }
        }
      }
      JOINT ShoulderLeft
      {
        OFFSET -14.712186 -6.185034 -4.256990
        CHANNELS 3 Zrotation Xrotation Yrotation
        JOINT ElbowLeft
        {
          OFFSET -4.397124 -22.610757 6.393415
          CHANNELS 3 Zrotation Xrotation Yrotation
          JOINT WristLeft
          {
            OFFSET 0.644495 -7.064939 27.680124
            CHANNELS 3 Zrotation Xrotation Yrotation
            JOINT HandLeft
            {
              OFFSET -0.006413 -1.773414 5.883908
              CHANNELS 3 Zrotation Xrotation Yrotation
              JOINT HandTipLeft
              {
                OFFSET -0.070915 -0.092162 -0.354240
                CHANNELS 3 Zrotation Xrotation Yrotation
                End Site
                {
                  OFFSET 0 0 0
                }
              }
              JOINT ThumbLeft
              {
                OFFSET 0.760129 1.928991 -1.993106
                CHANNELS 3 Zrotation Xrotation Yrotation
                End Site
                {
                  OFFSET 0 0 0
                }
              }
            }
          }
        }
      }
      JOINT ShoulderRight
      {
        OFFSET 13.345871 -4.897064 -3.010526
        CHANNELS 3 Zrotation Xrotation Yrotation
        JOINT ElbowRight
        {
          OFFSET 4.797761 -23.854523 6.613228
          CHANNELS 3 Zrotation Xrotation Yrotation
          JOINT WristRight
          {
            OFFSET -7.732720 -21.473932 5.009407
            CHANNELS 3 Zrotation Xrotation Yrotation
            JOINT HandRight
            {
              OFFSET -3.728268 -7.225798 1.960368
              CHANNELS 3 Zrotation Xrotation Yrotation
              JOINT HandTipRight
              {
                OFFSET -2.509820 -7.500539 1.172316
                CHANNELS 3 Zrotation Xrotation Yrotation
                End Site
                {
                  OFFSET 0 0 0
                }
              }
              JOINT ThumbRight
              {
                OFFSET 1.720820 -1.444514 -5.309556
                CHANNELS 3 Zrotation Xrotation Yrotation
                End Site
                {
                  OFFSET 0 0 0
                }
              }
            }
          }
        }
      }
    }
  }
  JOINT HipLeft
  {
    OFFSET -6.959201 2.259515 -3.279936
    CHANNELS 3 Zrotation Xrotation Yrotation
    JOINT KneeLeft
    {
      OFFSET -2.945615 -28.736604 -6.186626
      CHANNELS 3 Zrotation Xrotation Yrotation
      JOINT AnkleLeft
      {
        OFFSET -0.353671 -31.592482 -0.906303
        CHANNELS 3 Zrotation Xrotation Yrotation
        JOINT FootLeft
        {
          OFFSET -0.714895 -2.903620 -10.507625
          CHANNELS 3 Zrotation Xrotation Yrotation
          End Site
          {
            OFFSET 0 0 0
          }
        }
      }
    }
  }
  JOINT HipRight
  {
    OFFSET 5.910124 2.099526 -2.994516
    CHANNELS 3 Zrotation Xrotation Yrotation
    JOINT KneeRight
    {
      OFFSET 2.119634 -27.929149 -5.158425
      CHANNELS 3 Zrotation Xrotation Yrotation
      JOINT AnkleRight
      {
        OFFSET 1.129411 -33.681570 -0.067713
        CHANNELS 3 Zrotation Xrotation Yrotation
        JOINT FootRight
        {
          OFFSET -3.432842 -4.616214 -8.376509
          CHANNELS 3 Zrotation Xrotation Yrotation
          End Site
          {
            OFFSET 0 0 0
          }
        }
      }
    }
  }
}
MOTION
Frames: 13
Frame Time: 0.033333
35.543995 65.800493 209.913276 0.000000 0.000000 -1.270517 -0.000000 0.000000 1.270517 -0.000000 0.000000 0.000000 -0.000000 0.000000 0.000000 0.000000 0.000000 0.000000 -0.000000 0.000000 0.000000 -0.000000 0.000000 0.000000 -0.000000 0.000000 0.000000 -0.000000 0.000000 0.000000 0.000000 0.000000 0.000000 0.000000 0.000000 0.000000 -0.000000 0.000000 0.000000 -0.000000 0.000000 0.000000 -0.000000 0.000000 0.000000 -0.000000 0.000000 0.000000 0.000000 0.000000 0.000000 0.000000 0.000000 0.000000 -0.000000 0.000000 1.270517 -0.000000 0.000000 0.000000 -0.000000 0.000000 0.000000 0.000000 0.000000 0.000000 -0.000000 0.000000 1.270517 -0.000000 0.000000 0.000000 -0.000000 0.000000 0.000000 0.000000 0.000000 0.000000
35.581704 65.782427 209.919910 -0.096235 -0.007251 -1.227104 0.096057 0.009310 1.227090 -0.000000 0.000000 0.000000 -0.000000 0.000000 0.000000 0.000000 0.000000 0.000000 -0.000000 0.000000 0.000000 -0.147857 1.428845 -0.470124 0.159624 -1.427579 0.473956 -0.000000 0.000000 0.000000 0.000000 0.000000 0.000000 0.000000 0.000000 0.000000 -0.000000 0.000000 0.000000 -0.000000 0.000000 0.000000 -0.000000 0.000000 0.000000 -0.000000 0.000000 0.000000 0.000000 0.000000 0.000000 0.000000 0.000000 0.000000 0.096057 0.009310 1.227090 -0.000000 0.000000 0.000000 -0.262145 2.436957 0.328655 0.000000 0.000000 0.000000 0.096057 0.009310 1.227090 -0.000000 0.000000 0.000000 3.105338 0.034193 -5.771047 0.000000 0.000000 0.000000
35.616633 65.765886 209.926857 -0.179495 -0.015454 -1.189613 0.179136 0.019177 1.189559 -0.000000 0.000000 0.000000 -0.121859 -1.104860 0.072220 0.000000 0.000000 0.000000 -0.000000 0.000000 0.000000 -0.222495 2.191497 -0.721732 0.250258 -2.188502 0.730767 -0.000000 0.000000 0.000000 0.000000 0.000000 0.000000 0.000000 0.000000 0.000000 -0.000000 0.000000 0.000000 -0.000000 0.000000 0.000000 -0.000000 0.000000 0.000000 -0.000000 0.000000 0.000000 0.000000 0.000000 0.000000 0.000000 0.000000 0.000000 0.179136 0.019177 1.189559 -0.000000 0.000000 0.000000 -0.538337 3.785159 0.922287 0.000000 0.000000 0.000000 0.179136 0.019177 1.189559 -0.000000 0.000000 0.000000 5.865221 -0.107533 -10.971096 0.000000 0.000000 0.000000
35.648781 65.750871 209.934118 -0.249760 -0.024608 -1.158037 0.249212 0.029650 1.157918 -0.000000 0.000000 0.000000 -0.169845 -1.546007 0.100330 0.000000 0.000000 0.000000 -0.000000 0.000000 0.000000 -0.233187 2.293416 -0.759391 0.263765 -2.290102 0.769331 -0.000000 0.000000 0.000000 0.000000 0.000000 0.000000 0.000000 0.000000 0.000000 -0.000000 0.000000 0.000000 -0.000000 0.000000 0.000000 -0.000000 0.000000 0.000000 -0.000000 0.000000 0.000000 0.000000 0.000000 0.000000 0.000000 0.000000 0.000000 0.249212 0.029650 1.157918 -0.000000 0.000000 0.000000 -0.842862 4.223902 1.797548 0.000000 0.000000 0.000000 0.249212 0.029650 1.157918 -0.000000 0.000000 0.000000 8.133870 -0.303408 -15.334838 0.000000 0.000000 0.000000
35.678149 65.737380 209.941692 -0.307011 -0.034714 -1.132371 0.306265 0.040774 1.132169 -0.000000 0.000000 0.000000 -0.209083 -1.910437 0.123212 0.000000 0.000000 0.000000 -0.000000 0.000000 0.000000 -0.181231 1.735312 -0.583711 0.198989 -1.733367 0.589466 -0.000000 0.000000 0.000000 0.000000 0.000000 0.000000 0.000000 0.000000 0.000000 -0.000000 0.000000 0.000000 -0.000000 0.000000 0.000000 -0.000000 0.000000 0.000000 -0.000000 0.000000 0.000000 0.000000 0.000000 0.000000 0.000000 0.000000 0.000000 0.306265 0.040774 1.132169 -0.000000 0.000000 0.000000 -1.180694 3.787317 3.010471 0.000000 0.000000 0.000000 0.306265 0.040774 1.132169 -0.576797 -0.705396 -0.026049 10.415947 0.270060 -18.813455 0.000000 0.000000 0.000000
35.704737 65.725415 209.949580 -0.351232 -0.045771 -1.112616 0.350277 0.052581 1.112315 -0.000000 0.000000 0.000000 -0.239505 -2.196671 0.140936 0.000000 0.000000 0.000000 -0.000000 0.000000 0.000000 -0.000000 0.000000 0.000000 -0.000000 0.000000 0.000000 -0.000000 0.000000 0.000000 0.000000 0.000000 0.000000 0.000000 0.000000 0.000000 -0.000000 0.000000 0.000000 -0.000000 0.000000 0.000000 -0.000000 0.000000 0.000000 -0.000000 0.000000 0.000000 0.000000 0.000000 0.000000 0.000000 0.000000 0.000000 0.350277 0.052581 1.112315 -0.000000 0.000000 0.000000 -1.544007 2.372222 4.667626 0.000000 0.000000 0.000000 0.350277 0.052581 1.112315 -0.645461 -0.751794 -0.028152 11.610654 0.357652 -21.168573 0.000000 0.000000 0.000000
35.728182 65.715002 209.957728 -0.385201 -0.049698 -1.104782 0.384172 0.057115 1.104423 -0.000000 0.000000 0.000000 -0.245536 -2.461729 0.151638 0.000000 0.000000 0.000000 -0.000000 0.000000 0.000000 0.190632 -1.798208 0.551810 -0.173394 1.799951 -0.546094 -0.000000 0.000000 0.000000 0.000000 0.000000 0.000000 0.000000 0.000000 0.000000 -0.000000 0.000000 0.000000 -0.000000 0.000000 0.000000 -0.000000 0.000000 0.000000 -0.000000 0.000000 0.000000 0.000000 0.000000 0.000000 0.000000 0.000000 0.000000 0.384172 0.057115 1.104423 -0.000000 0.000000 0.000000 -1.687732 1.307744 5.551334 0.000000 0.000000 0.000000 0.384172 0.057115 1.104423 -0.664508 -0.847003 -0.031985 13.408271 -1.491203 -23.954966 0.000000 0.000000 0.000000
35.750408 65.703183 209.966894 -0.402484 -0.058157 -1.094317 0.401300 0.065832 1.093882 -0.000000 0.000000 0.000000 -0.257868 -2.646387 0.161128 0.000000 0.000000 0.000000 -0.000000 0.000000 0.000000 0.541514 -4.611191 1.487227 -0.423160 4.623528 -1.448341 0.082583 -1.038909 0.500468 0.000000 0.000000 0.000000 0.000000 0.000000 0.000000 -0.000000 0.000000 0.000000 -0.000000 0.000000 0.000000 -0.000000 0.000000 0.000000 -0.000000 0.000000 0.000000 0.000000 0.000000 0.000000 0.000000 0.000000 0.000000 0.401300 0.065832 1.093882 -0.000000 0.000000 0.000000 -1.788313 -0.890449 6.835450 0.000000 0.000000 0.000000 0.401300 0.065832 1.093882 -0.651694 -0.719496 -0.026914 12.750824 -0.593097 -23.068602 0.000000 0.000000 0.000000
35.766341 65.696444 209.975249 -0.404736 -0.074670 -1.100084 0.403228 0.082424 1.099530 -0.000000 0.000000 0.000000 -0.271984 -2.643126 0.164563 0.000000 0.000000 0.000000 -0.000000 0.000000 0.000000 0.967883 -7.580223 2.509927 -0.641638 7.614580 -2.403107 0.167256 -1.685891 0.697106 0.000000 0.000000 0.000000 0.000000 0.000000 0.000000 -0.000000 0.000000 0.000000 -0.000000 0.000000 0.000000 -0.000000 0.000000 0.000000 -0.000000 0.000000 0.000000 0.000000 0.000000 0.000000 0.000000 0.000000 0.000000 0.403228 0.082424 1.099530 -0.000000 0.000000 0.000000 -1.789449 -13.283230 16.290133 0.000000 0.000000 0.000000 0.403228 0.082424 1.099530 -0.000000 0.000000 0.000000 11.368982 -1.559192 -21.258830 0.000000 0.000000 0.000000
35.780678 65.693114 209.984193 -0.393762 -0.106412 -1.104132 0.391639 0.113978 1.103376 -0.000000 0.000000 0.000000 -0.309055 -2.494735 0.168821 0.000000 0.000000 0.000000 -0.000000 0.000000 0.000000 1.421267 -10.352853 3.502050 -0.802964 10.418345 -3.300082 0.237826 -2.261189 0.900417 0.000000 0.000000 0.000000 0.000000 0.000000 0.000000 -0.000000 0.000000 0.000000 -0.000000 0.000000 0.000000 -0.000000 0.000000 0.000000 -0.000000 0.000000 0.000000 0.000000 0.000000 0.000000 0.000000 0.000000 0.000000 0.391639 0.113978 1.103376 -0.000000 0.000000 0.000000 0.312082 -24.977544 25.787257 0.000000 0.000000 0.000000 0.391639 0.113978 1.103376 -0.000000 0.000000 0.000000 9.142931 -0.597372 -17.197863 0.000000 0.000000 0.000000
35.793113 65.693356 209.991381 -0.388686 -0.121854 -1.094506 0.386288 0.129253 1.093657 -0.000000 0.000000 0.000000 -0.260662 -2.437458 0.154625 0.000000 0.000000 0.000000 -0.000000 0.000000 0.000000 1.832509 -12.595802 4.342045 -0.903575 12.694684 -4.039272 0.295843 -2.726046 1.067637 0.000000 0.000000 0.000000 0.000000 0.000000 0.000000 -0.000000 0.000000 0.000000 -0.000000 0.000000 0.000000 -0.000000 0.000000 0.000000 -0.000000 0.000000 0.000000 0.000000 0.000000 0.000000 0.000000 0.000000 0.000000 0.386288 0.129253 1.093657 -0.000000 0.000000 0.000000 4.678027 -35.644282 35.500392 0.000000 0.000000 0.000000 0.386288 0.129253 1.093657 -0.000000 0.000000 0.000000 6.400484 0.446284 -12.363301 0.000000 0.000000 0.000000
35.803580 65.696889 209.999962 -0.380566 -0.133181 -1.096178 0.377949 0.140434 1.095272 -0.000000 0.000000 0.000000 -0.232731 -2.398700 0.146213 0.000000 0.000000 0.000000 -0.000000 0.000000 0.000000 2.116883 -13.993538 4.901942 -0.954434 14.118017 -4.523923 0.331482 -3.015144 1.176819 0.000000 0.000000 0.000000 0.000000 0.000000 0.000000 1.102109 -0.376308 0.232820 -1.100595 0.380714 -0.225544 -0.000000 0.000000 0.000000 -0.000000 0.000000 0.000000 0.000000 0.000000 0.000000 0.000000 0.000000 0.000000 0.377949 0.140434 1.095272 -0.000000 0.000000 0.000000 8.516459 -41.516008 41.542679 0.000000 0.000000 0.000000 0.377949 0.140434 1.095272 -0.000000 0.000000 0.000000 2.848012 2.110363 -6.683510 0.000000 0.000000 0.000000
35.810157 65.702079 210.007941 -0.369521 -0.140815 -1.113312 0.366717 0.147965 1.112384 -0.000000 0.000000 0.000000 -0.256272 -2.369242 0.151161 0.000000 0.000000 0.000000 0.801615 0.430983 0.140179 1.352388 -14.677013 4.919479 -0.968522 14.374545 -4.658034 0.340057 -3.066708 1.187134 0.000000 0.000000 0.000000 0.000000 0.000000 0.000000 1.538065 -0.531941 0.325281 -1.535089 0.540472 -0.310900 -0.000000 0.000000 0.000000 -0.000000 0.000000 0.000000 0.000000 0.000000 0.000000 0.000000 0.000000 0.000000 0.366717 0.147965 1.112384 -0.000000 0.000000 0.000000 22.382900 -50.864388 66.530097 0.000000 0.000000 0.000000 0.366717 0.147965 1.112384 -0.000000 0.000000 0.000000 0.980938 1.527272 -2.877050 0.000000 0.000000 0.000000
